<?xml version="1.0" standalone="no"?>
<!DOCTYPE svg PUBLIC "-//W3C//DTD SVG 1.1//EN" "http://www.w3.org/Graphics/SVG/1.1/DTD/svg11.dtd" >
<svg xmlns="http://www.w3.org/2000/svg">
<metadata></metadata>
<defs>
<font id="zurichbold" horiz-adv-x="1024" >
<font-face units-per-em="2048" ascent="1638" descent="-410" />
<missing-glyph horiz-adv-x="567" />
<glyph unicode="&#xfb01;" horiz-adv-x="1249" d="M29 823v205h155v199q0 274 314 274q35 0 79 -4t101 -10v-207q-41 6 -70 6q-131 0 -131 -121v-137h182v-205h-182v-823h-293v823h-155zM829 0v1028h299v-1028h-299zM829 1214v261h299v-261h-299z" />
<glyph unicode="&#xfb02;" horiz-adv-x="1261" d="M29 823v205h155v199q0 274 314 274q35 0 79 -4t101 -10v-207q-41 6 -70 6q-131 0 -131 -121v-137h182v-205h-182v-823h-293v823h-155zM829 0v1475h299v-1475h-299z" />
<glyph horiz-adv-x="2048" />
<glyph horiz-adv-x="2048" />
<glyph unicode="&#xd;" horiz-adv-x="567" />
<glyph unicode=" "  horiz-adv-x="567" />
<glyph unicode="&#x09;" horiz-adv-x="567" />
<glyph unicode="&#xa0;" horiz-adv-x="567" />
<glyph unicode="!" horiz-adv-x="782" d="M256 1475h270l-30 -1072h-209zM262 0v270h258v-270h-258z" />
<glyph unicode="&#x22;" horiz-adv-x="677" d="M80 879v559h192v-559h-192zM406 879v559h192v-559h-192z" />
<glyph unicode="#" horiz-adv-x="1574" d="M45 406l76 200h282l86 242h-299l74 201h297l148 415h221l-146 -415h242l148 415h221l-148 -415h283l-74 -201h-280l-84 -242h290l-71 -200h-291l-148 -416h-221l148 416h-244l-149 -416h-220l146 416h-287zM621 606h251l86 242h-249z" />
<glyph unicode="$" horiz-adv-x="1132" d="M74 438v33h254v-8q0 -227 186 -264v422q-211 51 -309.5 142t-98.5 255q0 168 104.5 274.5t303.5 128.5v142h109v-138q188 -16 284.5 -116.5t96.5 -280.5v-6h-234q-8 94 -42 145.5t-105 67.5v-387q117 -33 199.5 -68t135 -82t77 -110.5t24.5 -151.5q0 -184 -111.5 -296.5 t-324.5 -139.5v-193h-109v189q-215 4 -327.5 117.5t-112.5 324.5zM350 1067q0 -131 164 -184v356q-78 -14 -121 -60t-43 -112zM623 199q168 41 168 194q0 133 -168 189v-383z" />
<glyph unicode="%" horiz-adv-x="2015" d="M176 1073q0 184 84 280.5t240 96.5q154 0 236.5 -92t82.5 -266q0 -190 -85 -291t-245 -101q-152 0 -232.5 96.5t-80.5 276.5zM379 1075q0 -111 30.5 -168t86.5 -57q59 0 90.5 59.5t31.5 175.5q0 106 -31.5 162t-86.5 56q-57 0 -89 -57.5t-32 -170.5zM508 -25l833 1475 h164l-833 -1475h-164zM1194 348q0 184 84 280.5t240 96.5q154 0 237.5 -92t83.5 -266q0 -190 -86 -291t-246 -101q-152 0 -232.5 96.5t-80.5 276.5zM1397 350q0 -111 30.5 -168t85.5 -57q59 0 91 59.5t32 175.5q0 106 -31.5 162t-86.5 56q-57 0 -89 -57.5t-32 -170.5z" />
<glyph unicode="&#x26;" horiz-adv-x="1327" d="M86 387q0 156 75 251t210 114q-111 29 -172.5 115.5t-61.5 215.5q0 186 117 290t340 104h188v-220h-153q-186 0 -187 -186q0 -106 44 -156.5t143 -50.5h176v193h299v-193h182v-213h-182v-651h-508q-117 0 -206 8t-157 58q-72 53 -109.5 134t-37.5 187zM406 434 q0 -63 12 -105t39.5 -66.5t69.5 -35t102 -10.5h176v434h-170q-123 0 -176 -49t-53 -168z" />
<glyph unicode="'" horiz-adv-x="352" d="M80 879v559h192v-559h-192z" />
<glyph unicode="(" horiz-adv-x="677" d="M121 567q0 217 55 444.5t152 485.5h227q-86 -260 -133 -488.5t-47 -441.5q0 -197 41 -412.5t119 -461.5h-230q-184 524 -184 874z" />
<glyph unicode=")" horiz-adv-x="677" d="M121 1497h229q96 -258 151.5 -485.5t55.5 -444.5q0 -176 -47 -393t-139 -481h-228q78 246 118 462t40 412q0 213 -47 441.5t-133 488.5z" />
<glyph unicode="*" horiz-adv-x="1099" d="M133 981v213l305 -47l-184 248l182 100l117 -276l119 278l186 -115l-196 -237l307 39v-215l-299 43l184 -242l-184 -102l-117 278l-115 -278l-188 104l186 248z" />
<glyph unicode="+" horiz-adv-x="1705" d="M254 512v199h498v510h202v-510h498v-199h-498v-512h-202v512h-498z" />
<glyph unicode="," horiz-adv-x="567" d="M63 -236l148 510h291l-226 -510h-213z" />
<glyph unicode="-" horiz-adv-x="712" d="M92 391v271h529v-271h-529z" />
<glyph unicode="." horiz-adv-x="567" d="M154 0v270h258v-270h-258z" />
<glyph unicode="/" horiz-adv-x="899" d="M43 -125l612 1622h158l-610 -1622h-160z" />
<glyph unicode="0" horiz-adv-x="1132" d="M70 715q0 367 124.5 551t372.5 184q246 0 372 -184.5t126 -550.5q0 -367 -127 -552.5t-371 -185.5q-246 0 -371.5 185.5t-125.5 552.5zM375 715q0 -522 192 -522q193 0 193 522q0 520 -193 520t-192 -520z" />
<glyph unicode="1" horiz-adv-x="1132" d="M205 928v286q209 88 352 213h277v-1427h-304v1106q-90 -61 -169.5 -106.5t-155.5 -71.5z" />
<glyph unicode="2" horiz-adv-x="1132" d="M74 0v299q164 147 292 262t216 208t134 168t46 140q0 72 -46 120t-122 48q-186 0 -193 -217h-272v16q0 92 32 168t92 128.5t145 81t192 28.5q106 0 192 -27.5t146.5 -78t92.5 -120t32 -153.5q0 -96 -42 -188t-125 -191.5t-204 -209t-281 -240.5h660v-242h-987z" />
<glyph unicode="3" horiz-adv-x="1132" d="M84 1047q2 193 122 298t343 105q111 0 196.5 -29.5t146 -84t92.5 -130.5t32 -168q0 -248 -244 -315q254 -63 254 -320q0 -92 -36 -170.5t-100.5 -135t-155.5 -89.5t-204 -33q-207 0 -323.5 100.5t-116.5 274.5v29h268q2 -92 51.5 -142.5t133.5 -50.5q92 0 145 57.5 t53 155.5q0 59 -17 98.5t-52 61t-87.5 29.5t-119.5 8h-107v238h111q139 0 205.5 40.5t66.5 155.5q0 98 -52 154.5t-144 56.5q-84 0 -135.5 -51t-53.5 -143h-272z" />
<glyph unicode="4" horiz-adv-x="1132" d="M43 309v287l559 831h309v-882h179v-236h-179v-309h-286v309h-582zM264 545h361v549z" />
<glyph unicode="5" horiz-adv-x="1132" d="M78 354v4h309q2 -72 43 -112.5t113 -40.5q96 0 153.5 72.5t57.5 207.5q0 115 -52.5 182.5t-134.5 67.5q-133 0 -184 -147h-301l33 839h854v-231h-584l-20 -348q113 98 262 98q94 0 173 -32.5t136 -91t89 -141.5t32 -183q0 -117 -39 -212.5t-108.5 -165t-168 -107.5 t-217.5 -38q-102 0 -184 27t-140.5 77t-90 119.5t-31.5 155.5z" />
<glyph unicode="6" horiz-adv-x="1132" d="M72 625q0 412 137 617.5t405 205.5q193 0 297.5 -95.5t106.5 -269.5h-262q-10 74 -51 114t-105 40q-203 0 -203 -397v-13q123 104 254 105q94 0 171 -32t132.5 -90t86 -141t30.5 -188q0 -115 -36 -208t-100.5 -159.5t-155.5 -102.5t-201 -36q-506 0 -506 650zM393 457 q0 -115 51.5 -181.5t130.5 -66.5q86 0 137.5 64.5t51.5 183.5q0 117 -51 181t-135 64t-134.5 -64.5t-50.5 -180.5z" />
<glyph unicode="7" horiz-adv-x="1132" d="M63 1184v243h953v-272l-477 -1155h-340l524 1184h-660z" />
<glyph unicode="8" horiz-adv-x="1132" d="M70 410q0 123 63.5 204t202.5 140q-252 59 -252 305q0 186 124 289.5t359 103.5q236 0 359 -102.5t123 -290.5q0 -238 -252 -305q141 -53 203.5 -136t62.5 -219q0 -88 -37 -165.5t-102.5 -135t-156.5 -90.5t-200 -33t-200 33t-157.5 91.5t-103 137t-36.5 173.5zM362 412 q0 -41 15.5 -78t43.5 -65.5t64.5 -46t79.5 -17.5q92 0 149.5 60.5t57.5 152.5q0 45 -16.5 83t-45 66.5t-65.5 45t-80 16.5q-41 0 -77.5 -16.5t-64.5 -46t-44.5 -69.5t-16.5 -85zM385 1051q0 -86 51 -136.5t129 -50.5q80 0 132.5 50.5t52.5 136.5q0 78 -53.5 128t-131.5 50 q-74 0 -127 -50t-53 -128z" />
<glyph unicode="9" horiz-adv-x="1132" d="M61 942q0 115 36 208t100.5 159.5t155.5 102.5t202 36q506 0 506 -649q0 -412 -137.5 -618t-405.5 -206q-193 0 -297 96.5t-106 270.5h262q10 -74 51 -114t104 -40q98 0 150.5 96.5t52.5 301.5v12q-123 -104 -254 -104q-94 0 -171 30.5t-132 89t-86 141.5t-31 187z M369 967q0 -117 51 -180.5t135 -63.5t134 63.5t50 180.5q0 115 -51 181t-131 66q-86 0 -137 -64t-51 -183z" />
<glyph unicode=":" horiz-adv-x="782" d="M262 0v270h258v-270h-258zM262 758v270h258v-270h-258z" />
<glyph unicode=";" horiz-adv-x="782" d="M119 -236l145 508h287l-223 -508h-209zM262 760v270h258v-270h-258z" />
<glyph unicode="&#x3c;" horiz-adv-x="1705" d="M264 512v199l1178 483v-219l-893 -365l893 -364v-219z" />
<glyph unicode="=" horiz-adv-x="1705" d="M254 297v199h1198v-199h-1198zM254 727v199h1198v-199h-1198z" />
<glyph unicode="&#x3e;" horiz-adv-x="1705" d="M264 27v219l895 364l-895 365v219l1178 -483v-199z" />
<glyph unicode="?" horiz-adv-x="1013" d="M94 1247v215q174 35 312 35q252 0 382 -98.5t130 -272.5q0 -111 -52.5 -198.5t-158.5 -184.5q-43 -39 -78 -67.5t-58.5 -55t-37 -54t-13.5 -64.5v-168h-223v211q0 35 7 59.5t21.5 45t33 40t40.5 45.5q96 113 152.5 195t56.5 162q0 92 -61.5 149t-169.5 57q-53 0 -124 -13 t-159 -38zM287 0v250h239v-250h-239z" />
<glyph unicode="@" horiz-adv-x="2048" d="M90 520q0 168 52.5 318.5t154.5 275.5q147 180 354 273.5t465 93.5q174 0 321.5 -46t254.5 -128q268 -207 268 -543q0 -166 -65.5 -305.5t-188.5 -237.5q-143 -115 -324 -115q-213 0 -215 166q-55 -86 -126.5 -124.5t-170.5 -38.5q-160 0 -241.5 87t-81.5 253 q0 121 38 224t103.5 178t153.5 118t188 43q160 0 236 -131l53 98h178l-147 -598q-6 -25 -7 -41q0 -70 95 -70q37 0 79 18.5t82 57.5q174 162 175 422q0 117 -47.5 217t-134.5 174t-209.5 116t-272.5 42q-285 0 -483 -135q-170 -115 -261.5 -285t-91.5 -375 q0 -154 54.5 -278.5t154 -211.5t239.5 -135.5t312 -48.5q164 0 317.5 49.5t286.5 141.5l82 -117q-309 -231 -682 -231q-197 0 -356.5 49t-282.5 143q-309 240 -309 637zM760 444q0 -188 158 -188q80 0 149.5 60.5t95.5 166.5l54 217q-25 166 -175 166q-55 0 -106 -32.5 t-90 -90t-62.5 -134.5t-23.5 -165z" />
<glyph unicode="A" horiz-adv-x="1435" d="M6 0l535 1475h372l514 -1475h-321l-105 317h-583l-115 -317h-297zM498 559h426l-203 625z" />
<glyph unicode="B" horiz-adv-x="1353" d="M141 0v1475h506q287 0 424 -87.5t137 -289.5q0 -244 -241 -320q303 -80 303 -368q0 -178 -105 -283q-43 -43 -96 -68.5t-116.5 -39t-139.5 -16.5t-164 -3h-508zM442 236h207q82 0 141.5 7t97.5 28.5t55.5 62.5t17.5 110q0 66 -18.5 106t-56.5 62.5t-97.5 30.5t-139.5 8 h-207v-415zM442 877h207q135 0 196.5 36.5t61.5 143.5q0 115 -61.5 153.5t-196.5 38.5h-207v-372z" />
<glyph unicode="C" horiz-adv-x="1427" d="M86 731q0 375 174 571.5t502 196.5q272 0 424.5 -121t163.5 -329h-289q-6 106 -83 169.5t-204 63.5q-371 0 -371 -545q0 -279 90.5 -413t282.5 -134q123 0 200 68t85 184h297q-16 -229 -169 -348t-433 -119q-332 0 -501 190.5t-169 565.5z" />
<glyph unicode="D" horiz-adv-x="1476" d="M141 0v1475h461q143 0 266 -21.5t238 -101.5q135 -94 205.5 -250t70.5 -367q0 -362 -195.5 -548.5t-584.5 -186.5h-461zM455 244h159q229 0 335 117.5t106 371.5q0 260 -105.5 380t-335.5 120h-159v-989z" />
<glyph unicode="E" horiz-adv-x="1228" d="M143 0v1475h979v-244h-659v-348h618v-240h-618v-397h682v-246h-1002z" />
<glyph unicode="F" horiz-adv-x="1126" d="M141 0v1475h944v-244h-628v-348h585v-240h-585v-643h-316z" />
<glyph unicode="G" horiz-adv-x="1576" d="M92 717q0 182 52.5 327.5t151.5 247t243.5 154.5t326.5 53q137 0 245 -32.5t183.5 -92t115.5 -143.5t40 -184v-27h-297q-6 137 -84 207.5t-221 70.5q-98 0 -179 -38.5t-137.5 -112.5t-87 -179.5t-30.5 -240.5q0 -262 121.5 -395t361.5 -133q55 0 115.5 7t126.5 23v322 h-281v235h588v-690q-125 -63 -265.5 -92t-306.5 -29q-377 0 -579.5 193.5t-202.5 548.5z" />
<glyph unicode="H" horiz-adv-x="1464" d="M141 0v1475h318v-590h557v590h307v-1475h-307v645h-557v-645h-318z" />
<glyph unicode="I" horiz-adv-x="595" d="M141 0v1475h314v-1475h-314z" />
<glyph unicode="J" horiz-adv-x="1126" d="M20 444v17h299v-29q0 -227 181 -227q57 0 91 20.5t51 60.5t22.5 100t5.5 140v949h313v-1000q0 -500 -471 -500q-242 0 -367 119t-125 350z" />
<glyph unicode="K" horiz-adv-x="1345" d="M143 0v1475h314v-637l481 637h354l-518 -660l569 -815h-366l-520 764v-764h-314z" />
<glyph unicode="L" horiz-adv-x="1165" d="M143 0v1475h314v-1225h665v-250h-979z" />
<glyph unicode="M" horiz-adv-x="1908" d="M143 0v1475h498l309 -1065l307 1065h508v-1475h-292v1247l-386 -1247h-276l-385 1247v-1247h-283z" />
<glyph unicode="N" horiz-adv-x="1574" d="M141 0v1475h455l555 -1186v1186h283v-1475h-437l-573 1221v-1221h-283z" />
<glyph unicode="O" horiz-adv-x="1597" d="M94 745q0 174 49.5 314.5t141.5 237t222 148.5t292 52t292 -52t221 -148.5t140 -236.5t49 -315q0 -182 -48 -324t-139 -241.5t-221 -152t-294 -52.5q-166 0 -296 52.5t-221.5 152t-139.5 241.5t-48 324zM424 743q0 -274 95 -411t278 -137q184 0 279 137t95 411 q0 268 -97 404.5t-277 136.5t-276.5 -136.5t-96.5 -404.5z" />
<glyph unicode="P" horiz-adv-x="1234" d="M141 0v1475h437q307 0 451.5 -103.5t144.5 -345.5q0 -457 -515 -457h-219v-569h-299zM440 817h150q141 0 206.5 45t65.5 162t-65.5 161t-206.5 44h-150v-412z" />
<glyph unicode="Q" horiz-adv-x="1597" d="M94 741q0 176 49.5 316.5t141.5 238t223 149.5t293 52q160 0 288 -49t218 -142.5t138 -228.5t48 -307q0 -180 -54.5 -320.5t-152.5 -224.5h262v-225h-407q-82 0 -163 -10t-165 -10q-182 0 -312 48t-233 169q-80 92 -127 232t-47 312zM426 750q0 -274 95 -412.5 t280 -138.5q184 0 278.5 138t94.5 413q0 268 -96.5 404t-276.5 136t-277.5 -136t-97.5 -404z" />
<glyph unicode="R" horiz-adv-x="1349" d="M141 0v1475h613q256 0 377.5 -88.5t121.5 -282.5q0 -158 -67.5 -244t-218.5 -121q127 -14 180 -77.5t70 -200.5l26 -213q10 -84 28.5 -145.5t47.5 -102.5h-342q-20 39 -28.5 83t-12.5 97l-21 223q-6 63 -13 101.5t-26.5 59t-55.5 25.5t-97 5h-272v-594h-310zM451 834h186 q160 0 232.5 39.5t72.5 162.5q0 68 -18.5 109t-55.5 64.5t-94 30.5t-137 7h-186v-413z" />
<glyph unicode="S" horiz-adv-x="1347" d="M84 459v20h309q0 -295 291 -295q121 0 192.5 58.5t71.5 144.5q0 55 -24.5 92t-73.5 65.5t-120 54.5t-163 56q-84 29 -160.5 56.5t-148.5 81.5q-61 47 -95 117.5t-34 158.5q0 96 37 176t108.5 136.5t176 88t239.5 31.5q246 0 378 -112.5t132 -317.5v-8h-274 q-10 117 -75 176t-181 59q-113 0 -177.5 -51t-64.5 -137q0 -51 25.5 -87t73.5 -63.5t120 -52t164 -55.5q113 -37 198 -74t142 -86t85 -115.5t28 -162.5q0 -201 -153 -320t-443 -119q-584 0 -584 484z" />
<glyph unicode="T" horiz-adv-x="1234" d="M25 1235v240h1185v-240h-434v-1235h-317v1235h-434z" />
<glyph unicode="U" horiz-adv-x="1542" d="M139 567v908h314v-930q0 -326 329 -326q166 0 243 83t77 257v916h303v-908q0 -299 -155.5 -444.5t-477.5 -145.5q-324 0 -478.5 143.5t-154.5 446.5z" />
<glyph unicode="V" horiz-adv-x="1462" d="M14 1475h342l389 -1153l379 1153h322l-543 -1475h-352z" />
<glyph unicode="W" horiz-adv-x="2029" d="M12 1475h346l213 -1147l293 1147h357l258 -1147l233 1147h305l-362 -1475h-359l-266 1130l-289 -1130h-352z" />
<glyph unicode="X" horiz-adv-x="1462" d="M31 0l506 762l-474 713h363l309 -510l324 510h330l-480 -707l506 -768h-366l-342 559l-351 -559h-325z" />
<glyph unicode="Y" horiz-adv-x="1349" d="M20 1475h332l338 -631l305 631h328l-489 -930v-545h-316v545z" />
<glyph unicode="Z" horiz-adv-x="1236" d="M53 0v283l766 960h-725v232h1059v-285l-758 -946h776v-244h-1118z" />
<glyph unicode="[" horiz-adv-x="677" d="M170 -309v1784h463v-181h-217v-1417h217v-186h-463z" />
<glyph unicode="\" horiz-adv-x="899" d="M43 1497h160l610 -1622h-158z" />
<glyph unicode="]" horiz-adv-x="677" d="M84 -123h217v1417h-217v181h463v-1784h-463v186z" />
<glyph unicode="^" horiz-adv-x="2048" d="M416 899l481 561h252l481 -561h-235l-371 371l-373 -371h-235z" />
<glyph unicode="_" d="M0 -279h1024v-204h-1024v204z" />
<glyph unicode="`" d="M219 1526h258l197 -369h-142z" />
<glyph unicode="a" horiz-adv-x="1128" d="M88 293q0 180 139.5 274.5t415.5 94.5q16 0 33.5 -1.5t34.5 -1.5q0 10 1 21.5t1 21.5q0 94 -34 138.5t-110 44.5q-66 0 -100.5 -34t-40.5 -112h-297q2 315 438 316q113 0 197 -29t137 -80q66 -66 79 -141.5t13 -177.5v-314q0 -43 4.5 -120.5t12.5 -192.5h-258 q-4 27 -7.5 61.5t-5.5 77.5q-129 -172 -325 -172q-72 0 -132.5 23.5t-103.5 66.5t-67.5 103.5t-24.5 132.5zM379 311q0 -59 40 -97t103 -38q90 0 139.5 66.5t49.5 195.5v25.5t-2 30.5h-33q-147 0 -222 -48.5t-75 -134.5z" />
<glyph unicode="b" horiz-adv-x="1245" d="M125 0q4 39 7 81t3 89v1305h297v-588q109 160 309 160q92 0 168 -37t131.5 -105.5t86 -167t30.5 -223.5t-31.5 -224.5t-88 -168t-133.5 -105t-167 -36.5q-197 0 -309 167l-10 -147h-293zM426 512q0 -160 60.5 -247t158.5 -87t153.5 85t55.5 249t-55.5 250t-153.5 86 t-158.5 -88t-60.5 -248z" />
<glyph unicode="c" horiz-adv-x="1019" d="M80 528q0 248 128 386.5t353 138.5q180 0 287.5 -99.5t112.5 -275.5h-283q-10 98 -42 141t-97 43q-150 0 -150 -327q0 -178 34 -263.5t122 -85.5q123 0 135 203h281q0 -199 -111 -306.5t-309 -107.5q-104 0 -189.5 38t-146 109t-93 173t-32.5 233z" />
<glyph unicode="d" horiz-adv-x="1245" d="M88 514q0 125 31 223.5t86 167t131 105.5t168 37q201 0 309 -160v588h297v-1268q0 -66 2 -118t8 -89h-293l-10 147q-112 -167 -307 -167h-2q-90 0 -167 36.5t-133 105t-88 168t-32 224.5zM391 512q0 -164 55.5 -249t153.5 -85t158.5 87t60.5 247t-60.5 248t-158.5 88 t-153.5 -86t-55.5 -250z" />
<glyph unicode="e" horiz-adv-x="1120" d="M86 504q0 266 129 407.5t365 141.5q219 0 338.5 -137.5t119.5 -397.5v-33.5t-2 -33.5h-663q2 -274 190 -275q145 0 178 146h265q-12 -162 -127 -253.5t-314 -91.5q-227 0 -353 137.5t-126 389.5zM381 641h352q-4 223 -174 223q-76 0 -124 -57t-54 -166z" />
<glyph unicode="f" horiz-adv-x="669" d="M2 823v205h156v199q0 274 313 274q35 0 79 -4t101 -10v-207q-41 6 -69 6q-131 0 -131 -121v-137h182v-205h-182v-823h-293v823h-156z" />
<glyph unicode="g" horiz-adv-x="1222" d="M90 537q0 119 31 213t84 160.5t128 102.5t163 36q190 0 299 -160l10 139h291q-4 -35 -6.5 -76t-2.5 -88v-803q0 -244 -119.5 -355.5t-389.5 -111.5q-223 0 -337 87.5t-114 246.5h285q6 -66 49 -101.5t114 -35.5q121 0 167 59.5t46 198.5v121q-57 -76 -127.5 -110.5 t-166.5 -34.5q-90 0 -164 35.5t-127 101t-83 161t-30 214.5zM383 537q0 -145 54.5 -223t148.5 -78q96 0 153.5 78.5t57.5 222.5q0 143 -57.5 223t-153.5 80q-94 0 -148.5 -78t-54.5 -225z" />
<glyph unicode="h" horiz-adv-x="1220" d="M137 0v1475h297v-580q57 82 133 120t185 38q174 0 254.5 -96.5t80.5 -294.5v-662h-296v621q0 111 -37 163t-131 52q-86 0 -137.5 -54.5t-51.5 -148.5v-633h-297z" />
<glyph unicode="i" horiz-adv-x="567" d="M135 0v1028h299v-1028h-299zM135 1214v261h299v-261h-299z" />
<glyph unicode="j" horiz-adv-x="567" d="M4 -193q45 2 71.5 12.5t40 32t16.5 55.5t3 81v1040h299v-1073q0 -94 -14 -161.5t-52 -111.5t-103.5 -64.5t-168.5 -20.5q-16 0 -38.5 1t-53.5 3v206zM135 1214v261h299v-261h-299z" />
<glyph unicode="k" horiz-adv-x="1120" d="M135 0v1475h295v-850l305 403h342l-352 -436l377 -592h-359l-313 547v-547h-295z" />
<glyph unicode="l" horiz-adv-x="567" d="M135 0v1475h297v-1475h-297z" />
<glyph unicode="m" horiz-adv-x="1867" d="M129 1028h283l8 -154q59 94 138 136.5t194 42.5q238 0 313 -201q51 104 132 152.5t204 48.5q174 0 255 -96.5t81 -294.5v-662h-297v621q0 111 -37 163t-131 52q-86 0 -137.5 -54.5t-51.5 -148.5v-633h-297v621q0 111 -36.5 163t-128.5 52q-86 0 -136.5 -54.5 t-50.5 -148.5v-633h-297v831q0 47 -2 96.5t-6 100.5z" />
<glyph unicode="n" horiz-adv-x="1220" d="M129 1028h285l6 -154q59 94 138 136.5t194 42.5q174 0 254.5 -96.5t80.5 -294.5v-662h-294v621q0 111 -37 163t-131 52q-86 0 -138.5 -54.5t-52.5 -148.5v-633h-295v831q0 47 -3 96.5t-7 100.5z" />
<glyph unicode="o" horiz-adv-x="1234" d="M86 514q0 123 38 222.5t107.5 170t168 108.5t216.5 38q119 0 217.5 -38t169 -107.5t108.5 -170t38 -223.5t-38 -223.5t-108.5 -170t-169 -107.5t-217.5 -38t-217 38t-167.5 109t-107.5 170t-38 222zM389 516q0 -170 58.5 -255t168.5 -85q111 0 169.5 85t58.5 255 t-58.5 255t-169.5 85t-169 -85t-58 -255z" />
<glyph unicode="p" horiz-adv-x="1245" d="M125 1028h293l10 -147q113 168 309 168q90 0 167 -37t133.5 -106.5t88 -168t31.5 -223.5t-30.5 -223t-86 -167t-131 -105.5t-168.5 -36.5q-201 0 -309 159v-530h-297v1208q0 55 -2 106.5t-8 102.5zM426 516q0 -160 60.5 -248t158.5 -88t153.5 86t55.5 250t-55.5 250 t-153.5 86t-158.5 -88t-60.5 -248z" />
<glyph unicode="q" horiz-adv-x="1245" d="M88 514q0 125 32 223.5t88 168t133 106.5t167 37q197 0 309 -168l10 147h293q-4 -35 -7 -81t-3 -105v-1231h-297v530q-108 -159 -307 -159h-2q-92 0 -168 36.5t-131 105.5t-86 167t-31 223zM391 516q0 -164 55.5 -250t153.5 -86t158.5 88t60.5 248t-60.5 248t-158.5 88 t-153.5 -86t-55.5 -250z" />
<glyph unicode="r" horiz-adv-x="788" d="M121 1028h274l11 -184q80 192 334 192h3h9v-270q-16 2 -33 3t-33 1q-119 0 -184.5 -57.5t-65.5 -157.5v-555h-303v709q0 174 -12 319z" />
<glyph unicode="s" horiz-adv-x="1011" d="M59 309h279q4 -70 43 -102.5t123 -32.5q74 0 113.5 32t39.5 85q0 37 -18 59.5t-52 36.5t-83 26.5t-111 28.5q-162 43 -237.5 109.5t-75.5 187.5q0 66 29.5 123.5t86 99.5t137.5 66.5t183 24.5q180 0 280.5 -78t100.5 -209v-8h-262q-14 119 -143 119q-68 0 -106 -30 t-38 -75q0 -31 17.5 -50.5t52.5 -32.5t84 -24.5t114 -27.5q168 -41 247 -110.5t79 -192.5q0 -74 -31.5 -139.5t-91 -113.5t-142.5 -77t-183 -29q-209 0 -320 87.5t-115 246.5z" />
<glyph unicode="t" horiz-adv-x="788" d="M6 825v203h195v199l297 110v-309h237v-203h-239v-501q0 -117 112 -117q55 0 125 14v-211q-131 -30 -254 -30h-8q-145 0 -207.5 70.5t-62.5 217.5v557h-195z" />
<glyph unicode="u" horiz-adv-x="1220" d="M135 367v661h297v-618q0 -111 37 -163t131 -52q86 0 137 53t51 147v633h297v-829q0 -47 2.5 -97.5t6.5 -101.5h-283l-8 154q-59 -94 -138 -136.5t-194 -42.5q-174 0 -255 96.5t-81 295.5z" />
<glyph unicode="v" horiz-adv-x="1130" d="M14 1028h310l239 -700l244 700h283l-367 -1028h-334z" />
<glyph unicode="w" horiz-adv-x="1796" d="M10 1028h320l186 -756l221 756h328l211 -749l209 749h293l-351 -1028h-327l-211 756l-215 -756h-330z" />
<glyph unicode="x" horiz-adv-x="1122" d="M16 0l340 555l-309 473h334l197 -323l186 323h311l-319 -496l346 -532h-346l-219 377l-205 -377h-316z" />
<glyph unicode="y" horiz-adv-x="1126" d="M23 1028h329l223 -672l226 672h299l-393 -1028l-119 -389h-303l127 389z" />
<glyph unicode="z" horiz-adv-x="1009" d="M76 0v268l522 570h-508v190h823v-254l-514 -567h535v-207h-858z" />
<glyph unicode="{" d="M158 426v209q10 0 20 -1t21 -1q123 0 173 59.5t50 194.5v250q0 109 16.5 180.5t87.5 112.5q51 29 120 39t161 10q18 0 36.5 -1t39.5 -1v-209q-12 0 -24.5 1t-22.5 1q-55 0 -89 -10.5t-52.5 -34t-24.5 -62.5t-6 -94v-240q0 -68 -8.5 -117.5t-32 -84.5t-63.5 -58.5 t-103 -38.5q63 -14 103 -36.5t63.5 -58.5t32 -85t8.5 -117v-241q0 -55 6 -94t24.5 -61.5t52 -33t89.5 -10.5q10 0 22 1t25 1v-209q-20 0 -39 -1t-37 -1q-92 0 -160.5 10.5t-120.5 38.5q-72 41 -88 112t-16 179v252q0 135 -50 193.5t-173 58.5q-10 0 -20.5 -1t-20.5 -1z" />
<glyph unicode="|" d="M410 -483v2048h206v-2048h-206z" />
<glyph unicode="}" d="M143 -205q12 0 24.5 -1t22.5 -1q55 0 89 10.5t52.5 33t24.5 61.5t6 94v239q0 68 8.5 118t31 85t62.5 58.5t105 37.5q-63 14 -103 38t-63.5 59t-32 85t-8.5 117v242q0 55 -6 94t-24.5 61.5t-52 33t-89.5 10.5q-10 0 -22 -1t-25 -1v209h68q96 0 167 -10.5t122 -39.5 q70 -41 87 -111.5t17 -178.5v-252q0 -135 50.5 -193.5t172.5 -58.5q10 0 20.5 1t20.5 1v-209h-37q-127 0 -177 -56.5t-50 -193.5v-252q0 -109 -16.5 -180.5t-87.5 -110.5q-51 -29 -120 -39t-161 -10q-18 0 -36.5 1t-39.5 1v209z" />
<glyph unicode="~" horiz-adv-x="1705" d="M178 418v221q213 143 387 143q90 0 160 -18.5t135 -40.5q74 -25 145.5 -49.5t149.5 -24.5q92 0 181 39t194 115v-221q-100 -68 -192.5 -103t-186.5 -35q-92 0 -184 31q-106 35 -202.5 67.5t-201.5 32.5q-92 0 -184 -39.5t-201 -117.5z" />
<glyph unicode="&#xa1;" horiz-adv-x="782" d="M256 0l31 1071h209l30 -1071h-270zM262 1202v273h258v-273h-258z" />
<glyph unicode="&#xa2;" horiz-adv-x="1132" d="M125 535q0 127 32.5 228t91 171t140.5 106.5t180 36.5q43 0 95 -10l63 252l104 -25l-63 -245q227 -70 238 -347h-265q-8 68 -41 103l-141 -588q10 -4 19.5 -4h19.5q115 0 127 201h283v-4q0 -94 -29 -170t-81 -129.5t-126 -82t-162 -28.5q-45 0 -100 14l-68 -272l-104 27 l68 268q-129 49 -205 179t-76 319zM418 567q0 -98 7 -171.5t42 -125.5l149 615q-31 10 -51 10q-78 0 -112.5 -81t-34.5 -247z" />
<glyph unicode="&#xa3;" horiz-adv-x="1132" d="M70 668v211h170v231q0 162 111.5 251t320.5 89q188 0 287.5 -86t99.5 -246v-26h-260q0 166 -127 165q-74 0 -102.5 -39.5t-28.5 -125.5v-213h329v-211h-329v-432h514v-236h-963v236h148v432h-170z" />
<glyph unicode="&#xa4;" horiz-adv-x="1241" d="M68 438l202 205q-76 106 -75 242q0 135 75 241l-202 205l104 107l205 -203q51 37 110.5 57.5t133.5 20.5q139 0 247 -78l203 203l105 -107l-203 -205q76 -106 76 -241q0 -133 -76 -242l203 -205l-105 -104l-203 203q-51 -37 -111.5 -57.5t-133.5 -20.5q-141 0 -246 78 l-205 -203zM346 885q0 -57 21.5 -107.5t59.5 -87.5t88 -58.5t108 -21.5q57 0 107 21.5t88 58.5t59.5 87t21.5 108q0 55 -21.5 105t-59.5 88t-88 60.5t-107 22.5t-107.5 -22.5t-88.5 -60.5t-59.5 -88t-21.5 -105z" />
<glyph unicode="&#xa5;" horiz-adv-x="1355" d="M33 1425h303l360 -639l322 639h305l-238 -436h228v-115h-289l-102 -188h391v-115h-455l-24 -45v-526h-306v526l-24 45h-461v115h397l-104 188h-293v115h229z" />
<glyph unicode="&#xa6;" d="M410 -350v758h206v-758h-206zM410 674v758h206v-758h-206z" />
<glyph unicode="&#xa7;" horiz-adv-x="1099" d="M162 739q0 82 46 148.5t134 107.5q-74 37 -114 97.5t-40 136.5q0 119 101.5 195.5t281.5 76.5q197 0 322 -63v-221q-98 43 -172 61t-115 18q-86 0 -133 -31.5t-47 -78.5q0 -45 39 -72q49 -33 114.5 -47t131.5 -41q227 -90 227 -291q0 -82 -46 -148.5t-134 -107.5 q74 -37 113.5 -97t39.5 -136q0 -119 -101 -196t-282 -77q-98 0 -177 14.5t-144 47.5v223q96 -39 167.5 -59.5t119.5 -20.5q86 0 133 32t47 79q0 45 -39 71q-49 33 -113.5 46.5t-130.5 42.5q-229 92 -229 290zM393 729q1 -119 185 -166q63 33 96 84t33 98q0 117 -185 166 q-61 -33 -95 -84t-34 -98z" />
<glyph unicode="&#xa8;" d="M225 1217v243h226v-243h-226zM573 1217v243h226v-243h-226z" />
<glyph unicode="&#xa9;" horiz-adv-x="1705" d="M111 733q0 147 55 282.5t164 246.5q104 106 236 161.5t286 55.5t288 -55.5t242 -163.5q104 -104 159.5 -239.5t55.5 -287.5q0 -154 -55 -285t-160 -235q-111 -109 -247 -166t-283 -57t-280.5 56t-241.5 165q-106 106 -162.5 240.5t-56.5 281.5zM233 735 q0 -125 46.5 -236.5t136.5 -201.5t202.5 -136t235.5 -46t236.5 46t205.5 138q88 86 133.5 196.5t45.5 239.5q0 127 -46.5 238.5t-134.5 200.5q-182 182 -440 182q-129 0 -239.5 -45t-198.5 -135q-90 -92 -136.5 -205t-46.5 -236zM453 729q0 104 28.5 187t81.5 141.5 t128 90.5t165 32q76 0 140.5 -20.5t110.5 -57.5t73.5 -89t31.5 -116h-188q-8 72 -53 109.5t-119 37.5q-88 0 -141.5 -78.5t-53.5 -230.5q0 -147 52.5 -224t150.5 -77q72 0 116 42t54 120h193q-4 -70 -32 -126t-76 -96t-114.5 -62.5t-146.5 -22.5q-186 0 -293.5 116.5 t-107.5 323.5z" />
<glyph unicode="&#xaa;" horiz-adv-x="845" d="M66 958q0 125 104 192t313 67q12 0 24.5 -1.5t24.5 -1.5q0 8 1.5 15.5t1.5 15.5q0 127 -107 127q-51 0 -76.5 -23.5t-29.5 -76.5h-224q2 219 330 219q84 0 146.5 -20.5t103.5 -55.5q49 -45 59.5 -98t10.5 -125v-219q0 -59 12 -219h-195q-2 18 -5 42.5t-3 55.5 q-100 -121 -246 -121q-109 0 -177 62.5t-68 164.5zM285 971q0 -41 29.5 -67.5t76.5 -26.5q68 0 104.5 46t36.5 138v39h-24q-111 0 -167 -34t-56 -95z" />
<glyph unicode="&#xab;" horiz-adv-x="1241" d="M109 522l221 387h272l-194 -387l190 -403h-266zM639 522l221 387h273l-195 -387l190 -403h-266z" />
<glyph unicode="&#xac;" horiz-adv-x="1705" d="M254 668v196h1198v-502h-199v306h-999z" />
<glyph unicode="&#xad;" horiz-adv-x="712" d="M92 391v271h529v-271h-529z" />
<glyph unicode="&#xae;" horiz-adv-x="1705" d="M111 733q0 203 108 387q100 170 265 264.5t368 94.5q154 0 290 -56.5t244 -167.5q104 -104 157.5 -238t53.5 -284q0 -154 -56 -288t-163 -238q-111 -106 -246 -161.5t-280 -55.5q-150 0 -285 57t-243 168q-104 106 -158.5 239.5t-54.5 278.5zM233 735q0 -123 45.5 -234.5 t133.5 -199.5q90 -92 203.5 -140t236.5 -48t235.5 47t204.5 135q88 86 135.5 196.5t47.5 231.5q0 266 -177 446q-182 187 -444 187q-256 0 -432 -176q-92 -92 -140.5 -207t-48.5 -238zM545 336v825h323q352 0 353 -237q0 -82 -47.5 -139.5t-133.5 -79.5l185 -369h-224 l-157 338h-99v-338h-200zM745 795h99q86 0 128 27.5t42 88.5q0 66 -44 94.5t-136 28.5h-89v-239z" />
<glyph unicode="&#xaf;" d="M225 1262v153h574v-153h-574z" />
<glyph unicode="&#xb0;" horiz-adv-x="673" d="M35 1159q0 63 23.5 118.5t64.5 97.5t96.5 65.5t118.5 23.5t118.5 -24.5t96.5 -65.5t64.5 -96t23.5 -119q0 -61 -23.5 -116.5t-65.5 -97.5t-97.5 -65.5t-118.5 -23.5t-117.5 23.5t-95.5 64.5t-64.5 96.5t-23.5 118.5zM162 1161q0 -74 51 -125t125 -51q37 0 68.5 14.5 t55 39t37 56t13.5 66.5q0 72 -51 123t-123 51q-37 0 -68.5 -13t-55.5 -36.5t-38 -55.5t-14 -69z" />
<glyph unicode="&#xb1;" horiz-adv-x="1705" d="M254 -2v199h1198v-199h-1198zM254 698v199h498v326h202v-326h498v-199h-498v-325h-202v325h-498z" />
<glyph unicode="&#xb2;" horiz-adv-x="747" d="M49 571v181q215 174 335 281.5t120 185.5q0 41 -31 70.5t-82 29.5q-121 0 -127 -131h-178v10q0 113 81 178.5t222 65.5t223 -62.5t82 -165.5q0 -115 -109.5 -228.5t-320.5 -268.5h436v-146h-651z" />
<glyph unicode="&#xb3;" horiz-adv-x="747" d="M55 1200q2 117 81 179.5t226 62.5q145 0 226.5 -68.5t81.5 -179.5q0 -150 -160 -188q168 -39 168 -193q0 -55 -23.5 -102t-66.5 -81t-103.5 -53.5t-134.5 -19.5q-135 0 -213 60.5t-78 164.5v17h179q0 -53 32.5 -84t87.5 -31q61 0 96 34t35 93q0 72 -45 95.5t-137 23.5 h-69v141h71q92 0 136 24.5t44 94.5q0 59 -34.5 93t-94.5 34q-55 0 -88.5 -32t-35.5 -85h-181z" />
<glyph unicode="&#xb4;" d="M350 1157l197 369h258l-313 -369h-142z" />
<glyph unicode="&#xb6;" d="M41 1130q0 76 26.5 140.5t78 110.5t124 72t162.5 26h551v-111h-113v-1368h-151v1368h-160v-1368h-151v784q-86 2 -154 30t-115 73t-72.5 107.5t-25.5 135.5z" />
<glyph unicode="&#xb7;" horiz-adv-x="567" d="M131 723q0 63 43 107t107 44q63 0 107 -44t44 -107t-44 -107.5t-107 -44.5t-106.5 44.5t-43.5 107.5z" />
<glyph unicode="&#xb8;" d="M231 -309q88 -23 151.5 -33t104.5 -10q102 0 103 73q0 39 -29 54.5t-92 15.5h-27.5t-29.5 -2v211h100v-90h14q238 0 238 -191q0 -201 -266 -200q-47 0 -114 10t-153 33v129z" />
<glyph unicode="&#xb9;" horiz-adv-x="747" d="M135 1128v172q72 27 129.5 59t104.5 68h182v-856h-201v664q-59 -37 -112.5 -63.5t-102.5 -43.5z" />
<glyph unicode="&#xba;" horiz-adv-x="925" d="M66 1114q0 86 28.5 155.5t80.5 119t125 76t163 26.5t163.5 -26.5t126 -76t81 -119t28.5 -155.5t-28.5 -155.5t-81 -118.5t-126 -76t-163.5 -27t-163 27t-125 76t-80.5 118.5t-28.5 155.5zM293 1114q0 -238 170 -237q170 0 170 237q0 240 -170 240t-170 -240z" />
<glyph unicode="&#xbb;" horiz-adv-x="1241" d="M109 909h270l223 -387l-223 -403h-268l192 403zM639 909h270l224 -387l-224 -403h-268l193 403z" />
<glyph unicode="&#xbc;" horiz-adv-x="1769" d="M129 1147v160q68 25 122 54.5t101 63.5h174v-798h-192v618q-55 -35 -106.5 -59.5t-98.5 -38.5zM373 -25l868 1475h158l-869 -1475h-157zM1083 174v160l353 465h194v-494h113v-131h-113v-174h-180v174h-367zM1223 305h227v307z" />
<glyph unicode="&#xbd;" horiz-adv-x="1769" d="M129 1147v160q68 25 122 54.5t101 63.5h174v-798h-192v618q-55 -35 -106.5 -59.5t-98.5 -38.5zM373 -25l868 1475h158l-869 -1475h-157zM1104 0v168q102 82 183 146.5t136.5 116.5t84 94t28.5 79q0 39 -28.5 65.5t-75.5 26.5q-117 0 -123 -121h-170v11q0 104 76.5 164.5 t211.5 60.5q137 0 215 -58.5t78 -152.5q0 -53 -26.5 -105.5t-78.5 -107.5t-129 -116.5t-177 -135.5h415v-135h-620z" />
<glyph unicode="&#xbe;" horiz-adv-x="1769" d="M53 1212q0 109 76 167.5t217 58.5q139 0 216 -62.5t77 -167.5q0 -139 -152 -176q160 -37 160 -180q0 -51 -22.5 -95t-63.5 -76t-99.5 -50.5t-127.5 -18.5q-129 0 -203 56.5t-74 154.5v17h168q2 -51 33 -80t84 -29q59 0 92 32t33 87q0 68 -44 89.5t-130 21.5h-68v133h70 q90 0 131 22.5t41 87.5q0 53 -33 85t-90 32q-53 0 -86 -28.5t-33 -80.5h-172zM371 -25l868 1475h158l-869 -1475h-157zM1081 174v160l353 465h194v-494h113v-131h-113v-174h-180v174h-367zM1221 305h227v307z" />
<glyph unicode="&#xbf;" horiz-adv-x="1013" d="M96 350q0 111 52.5 198t158.5 183q43 39 78 67.5t58.5 54.5t37 54.5t13.5 65.5v168h223v-211q0 -35 -7.5 -59.5t-20.5 -45t-31.5 -40t-41.5 -46.5q-96 -113 -153 -194.5t-57 -161.5q0 -92 62 -149.5t171 -57.5q53 0 122.5 13.5t158.5 37.5v-215q-174 -35 -312 -35 q-252 0 -382 99.5t-130 273.5zM489 1225v250h238v-250h-238z" />
<glyph unicode="&#xc0;" horiz-adv-x="1435" d="M6 0l535 1475h372l514 -1475h-321l-105 317h-583l-115 -317h-297zM436 1972h258l197 -369h-142zM498 559h426l-203 625z" />
<glyph unicode="&#xc1;" horiz-adv-x="1435" d="M6 0l535 1475h372l514 -1475h-321l-105 317h-583l-115 -317h-297zM498 559h426l-203 625zM567 1603l197 369h258l-313 -369h-142z" />
<glyph unicode="&#xc2;" horiz-adv-x="1435" d="M6 0l535 1475h372l514 -1475h-321l-105 317h-583l-115 -317h-297zM414 1603l196 369h238l196 -369h-141l-174 217l-176 -217h-139zM498 559h426l-203 625z" />
<glyph unicode="&#xc3;" horiz-adv-x="1435" d="M6 0l535 1475h372l514 -1475h-321l-105 317h-583l-115 -317h-297zM412 1650q25 121 73.5 178.5t130.5 57.5q41 0 86 -15l93 -24q25 -8 55 -8q63 0 86 86h110q-51 -244 -208 -244q-16 0 -35 2t-39 8l-88 27q-37 10 -66 10q-63 0 -88 -78h-110zM498 559h426l-203 625z" />
<glyph unicode="&#xc4;" horiz-adv-x="1435" d="M6 0l535 1475h372l514 -1475h-321l-105 317h-583l-115 -317h-297zM442 1663v243h226v-243h-226zM498 559h426l-203 625zM790 1663v243h226v-243h-226z" />
<glyph unicode="&#xc5;" horiz-adv-x="1435" d="M6 0l535 1475l98 -2v4q-80 23 -125 85t-45 152q0 53 20.5 100.5t55.5 82t82 55t100 20.5t100 -20.5t82 -55t55.5 -82t20.5 -100.5q0 -92 -45 -153.5t-127 -83.5v-4l100 2l514 -1475h-321l-105 317h-583l-115 -317h-297zM498 559h426l-203 625zM610 1714q0 -51 33 -84 t84 -33q49 0 83 34t34 83q0 47 -35 82t-82 35q-49 0 -83 -34t-34 -83z" />
<glyph unicode="&#xc6;" horiz-adv-x="1972" d="M-18 0l804 1475h1100v-242h-676l52 -361h581v-235h-551l51 -393h564v-244h-832l-41 322h-581l-162 -322h-309zM571 557h430l-92 684z" />
<glyph unicode="&#xc7;" horiz-adv-x="1427" d="M86 731q0 375 174 571.5t502 196.5q272 0 424.5 -121t163.5 -329h-289q-6 106 -83 169.5t-204 63.5q-371 0 -371 -545q0 -279 90.5 -413t282.5 -134q123 0 200 68t85 184h297q-16 -229 -169 -348t-433 -119q-332 0 -501 190.5t-169 565.5zM467 -309q88 -23 151.5 -33 t104.5 -10q102 0 103 73q0 39 -29 54.5t-92 15.5h-27.5t-29.5 -2v211h100v-90h14q238 0 238 -191q0 -201 -266 -200q-47 0 -114 10t-153 33v129z" />
<glyph unicode="&#xc8;" horiz-adv-x="1228" d="M143 0v1475h979v-244h-659v-348h618v-240h-618v-397h682v-246h-1002zM334 1972h258l197 -369h-142z" />
<glyph unicode="&#xc9;" horiz-adv-x="1228" d="M143 0v1475h979v-244h-659v-348h618v-240h-618v-397h682v-246h-1002zM465 1603l197 369h258l-313 -369h-142z" />
<glyph unicode="&#xca;" horiz-adv-x="1228" d="M143 0v1475h979v-244h-659v-348h618v-240h-618v-397h682v-246h-1002zM312 1603l196 369h238l196 -369h-141l-174 217l-176 -217h-139z" />
<glyph unicode="&#xcb;" horiz-adv-x="1228" d="M143 0v1475h979v-244h-659v-348h618v-240h-618v-397h682v-246h-1002zM340 1663v243h226v-243h-226zM688 1663v243h226v-243h-226z" />
<glyph unicode="&#xcc;" horiz-adv-x="595" d="M8 1972h258l197 -369h-142zM141 0v1475h314v-1475h-314z" />
<glyph unicode="&#xcd;" horiz-adv-x="595" d="M139 1603l197 369h258l-313 -369h-142zM141 0v1475h314v-1475h-314z" />
<glyph unicode="&#xce;" horiz-adv-x="595" d="M-14 1603l196 369h238l196 -369h-141l-174 217l-176 -217h-139zM141 0v1475h314v-1475h-314z" />
<glyph unicode="&#xcf;" horiz-adv-x="595" d="M14 1663v243h226v-243h-226zM141 0v1475h314v-1475h-314zM362 1663v243h226v-243h-226z" />
<glyph unicode="&#xd0;" horiz-adv-x="1501" d="M0 678v180h160v617h461q143 0 266 -21.5t237 -101.5q135 -94 206 -250t71 -367q0 -362 -195.5 -548.5t-584.5 -186.5h-461v678h-160zM473 244h160q229 0 334.5 117.5t105.5 371.5q0 260 -105.5 380t-334.5 120h-160v-375h291v-180h-291v-434z" />
<glyph unicode="&#xd1;" horiz-adv-x="1574" d="M141 0v1475h455l555 -1186v1186h283v-1475h-437l-573 1221v-1221h-283zM494 1650q25 121 73.5 178.5t130.5 57.5q41 0 86 -15l93 -24q25 -8 55 -8q63 0 86 86h110q-51 -244 -208 -244q-16 0 -35 2t-39 8l-88 27q-37 10 -66 10q-63 0 -88 -78h-110z" />
<glyph unicode="&#xd2;" horiz-adv-x="1597" d="M94 745q0 174 49.5 314.5t141.5 237t222 148.5t292 52t292 -52t221 -148.5t140 -236.5t49 -315q0 -182 -48 -324t-139 -241.5t-221 -152t-294 -52.5q-166 0 -296 52.5t-221.5 152t-139.5 241.5t-48 324zM424 743q0 -274 95 -411t278 -137q184 0 279 137t95 411 q0 268 -97 404.5t-277 136.5t-276.5 -136.5t-96.5 -404.5zM506 1972h258l197 -369h-142z" />
<glyph unicode="&#xd3;" horiz-adv-x="1597" d="M94 745q0 174 49.5 314.5t141.5 237t222 148.5t292 52t292 -52t221 -148.5t140 -236.5t49 -315q0 -182 -48 -324t-139 -241.5t-221 -152t-294 -52.5q-166 0 -296 52.5t-221.5 152t-139.5 241.5t-48 324zM424 743q0 -274 95 -411t278 -137q184 0 279 137t95 411 q0 268 -97 404.5t-277 136.5t-276.5 -136.5t-96.5 -404.5zM637 1603l197 369h258l-313 -369h-142z" />
<glyph unicode="&#xd4;" horiz-adv-x="1597" d="M94 745q0 174 49.5 314.5t141.5 237t222 148.5t292 52t292 -52t221 -148.5t140 -236.5t49 -315q0 -182 -48 -324t-139 -241.5t-221 -152t-294 -52.5q-166 0 -296 52.5t-221.5 152t-139.5 241.5t-48 324zM424 743q0 -274 95 -411t278 -137q184 0 279 137t95 411 q0 268 -97 404.5t-277 136.5t-276.5 -136.5t-96.5 -404.5zM484 1603l196 369h238l196 -369h-141l-174 217l-176 -217h-139z" />
<glyph unicode="&#xd5;" horiz-adv-x="1597" d="M94 745q0 174 49.5 314.5t141.5 237t222 148.5t292 52t292 -52t221 -148.5t140 -236.5t49 -315q0 -182 -48 -324t-139 -241.5t-221 -152t-294 -52.5q-166 0 -296 52.5t-221.5 152t-139.5 241.5t-48 324zM424 743q0 -274 95 -411t278 -137q184 0 279 137t95 411 q0 268 -97 404.5t-277 136.5t-276.5 -136.5t-96.5 -404.5zM482 1650q25 121 73.5 178.5t130.5 57.5q41 0 86 -15l93 -24q25 -8 55 -8q63 0 86 86h110q-51 -244 -208 -244q-16 0 -35 2t-39 8l-88 27q-37 10 -66 10q-63 0 -88 -78h-110z" />
<glyph unicode="&#xd6;" horiz-adv-x="1597" d="M94 745q0 174 49.5 314.5t141.5 237t222 148.5t292 52t292 -52t221 -148.5t140 -236.5t49 -315q0 -182 -48 -324t-139 -241.5t-221 -152t-294 -52.5q-166 0 -296 52.5t-221.5 152t-139.5 241.5t-48 324zM424 743q0 -274 95 -411t278 -137q184 0 279 137t95 411 q0 268 -97 404.5t-277 136.5t-276.5 -136.5t-96.5 -404.5zM512 1663v243h226v-243h-226zM860 1663v243h226v-243h-226z" />
<glyph unicode="&#xd7;" horiz-adv-x="1705" d="M276 160l451 450l-451 453l140 139l450 -450l451 450l141 -139l-450 -453l450 -450l-141 -140l-451 451l-450 -451z" />
<glyph unicode="&#xd8;" horiz-adv-x="1597" d="M49 -6l203 221q-158 213 -158 533q0 176 49.5 315t139.5 235.5t220 147.5t292 51q313 0 487 -170l186 209l99 -96l-193 -217q61 -90 94 -212t33 -272q0 -178 -49 -319t-140 -239.5t-222.5 -152t-294.5 -53.5q-264 0 -445 142l-203 -219zM420 735q0 -74 9 -146.5 t32 -146.5l626 682q-51 84 -118.5 123t-165.5 39q-186 0 -284.5 -139t-98.5 -412zM528 311q55 -61 121 -89.5t152 -28.5q178 0 277.5 139t99.5 403q0 61 -8.5 123t-24.5 123z" />
<glyph unicode="&#xd9;" horiz-adv-x="1542" d="M139 567v908h314v-930q0 -326 329 -326q166 0 243 83t77 257v916h303v-908q0 -299 -155.5 -444.5t-477.5 -145.5q-324 0 -478.5 143.5t-154.5 446.5zM479 1972h258l197 -369h-142z" />
<glyph unicode="&#xda;" horiz-adv-x="1542" d="M139 567v908h314v-930q0 -326 329 -326q166 0 243 83t77 257v916h303v-908q0 -299 -155.5 -444.5t-477.5 -145.5q-324 0 -478.5 143.5t-154.5 446.5zM610 1603l197 369h258l-313 -369h-142z" />
<glyph unicode="&#xdb;" horiz-adv-x="1542" d="M139 567v908h314v-930q0 -326 329 -326q166 0 243 83t77 257v916h303v-908q0 -299 -155.5 -444.5t-477.5 -145.5q-324 0 -478.5 143.5t-154.5 446.5zM457 1603l196 369h238l196 -369h-141l-174 217l-176 -217h-139z" />
<glyph unicode="&#xdc;" horiz-adv-x="1542" d="M139 567v908h314v-930q0 -326 329 -326q166 0 243 83t77 257v916h303v-908q0 -299 -155.5 -444.5t-477.5 -145.5q-324 0 -478.5 143.5t-154.5 446.5zM485 1663v243h226v-243h-226zM833 1663v243h226v-243h-226z" />
<glyph unicode="&#xdd;" horiz-adv-x="1349" d="M20 1475h332l338 -631l305 631h328l-489 -930v-545h-316v545zM514 1603l197 369h258l-313 -369h-142z" />
<glyph unicode="&#xde;" horiz-adv-x="1234" d="M141 0v1475h299v-261h138q307 0 451.5 -103t144.5 -345q0 -457 -515 -457h-219v-309h-299zM440 555h150q141 0 206.5 46t65.5 163t-65.5 161t-206.5 44h-150v-414z" />
<glyph unicode="&#xdf;" horiz-adv-x="1347" d="M133 0v1077q0 418 483 418q229 0 352.5 -85t123.5 -220q0 -57 -26 -101.5t-79 -84.5q-63 -49 -100 -80t-37 -72q0 -53 55.5 -89t149.5 -89q55 -31 97 -59.5t69.5 -64.5t42 -84t14.5 -118q0 -377 -416 -377q-168 0 -249 80t-81 248h259q0 -59 26.5 -93t77.5 -34 q100 0 100 145q0 47 -10 77t-28.5 51.5t-45 38t-59.5 34.5q-66 37 -118 68.5t-90 64.5t-58.5 72t-20.5 92q0 37 9.5 66.5t25.5 54.5t39 48.5t51 49.5q47 45 78 77t31 77q0 53 -44 88t-124 35q-96 0 -152.5 -67.5t-56.5 -190.5v-1053h-289z" />
<glyph unicode="&#xe0;" horiz-adv-x="1128" d="M88 293q0 180 139.5 274.5t415.5 94.5q16 0 33.5 -1.5t34.5 -1.5q0 10 1 21.5t1 21.5q0 94 -34 138.5t-110 44.5q-66 0 -100.5 -34t-40.5 -112h-297q2 315 438 316q113 0 197 -29t137 -80q66 -66 79 -141.5t13 -177.5v-314q0 -43 4.5 -120.5t12.5 -192.5h-258 q-4 27 -7.5 61.5t-5.5 77.5q-129 -172 -325 -172q-72 0 -132.5 23.5t-103.5 66.5t-67.5 103.5t-24.5 132.5zM272 1526h258l197 -369h-142zM379 311q0 -59 40 -97t103 -38q90 0 139.5 66.5t49.5 195.5v25.5t-2 30.5h-33q-147 0 -222 -48.5t-75 -134.5z" />
<glyph unicode="&#xe1;" horiz-adv-x="1128" d="M88 293q0 180 139.5 274.5t415.5 94.5q16 0 33.5 -1.5t34.5 -1.5q0 10 1 21.5t1 21.5q0 94 -34 138.5t-110 44.5q-66 0 -100.5 -34t-40.5 -112h-297q2 315 438 316q113 0 197 -29t137 -80q66 -66 79 -141.5t13 -177.5v-314q0 -43 4.5 -120.5t12.5 -192.5h-258 q-4 27 -7.5 61.5t-5.5 77.5q-129 -172 -325 -172q-72 0 -132.5 23.5t-103.5 66.5t-67.5 103.5t-24.5 132.5zM379 311q0 -59 40 -97t103 -38q90 0 139.5 66.5t49.5 195.5v25.5t-2 30.5h-33q-147 0 -222 -48.5t-75 -134.5zM403 1157l197 369h258l-313 -369h-142z" />
<glyph unicode="&#xe2;" horiz-adv-x="1128" d="M88 293q0 180 139.5 274.5t415.5 94.5q16 0 33.5 -1.5t34.5 -1.5q0 10 1 21.5t1 21.5q0 94 -34 138.5t-110 44.5q-66 0 -100.5 -34t-40.5 -112h-297q2 315 438 316q113 0 197 -29t137 -80q66 -66 79 -141.5t13 -177.5v-314q0 -43 4.5 -120.5t12.5 -192.5h-258 q-4 27 -7.5 61.5t-5.5 77.5q-129 -172 -325 -172q-72 0 -132.5 23.5t-103.5 66.5t-67.5 103.5t-24.5 132.5zM250 1157l196 369h238l196 -369h-141l-174 217l-176 -217h-139zM379 311q0 -59 40 -97t103 -38q90 0 139.5 66.5t49.5 195.5v25.5t-2 30.5h-33q-147 0 -222 -48.5 t-75 -134.5z" />
<glyph unicode="&#xe3;" horiz-adv-x="1128" d="M88 293q0 180 139.5 274.5t415.5 94.5q16 0 33.5 -1.5t34.5 -1.5q0 10 1 21.5t1 21.5q0 94 -34 138.5t-110 44.5q-66 0 -100.5 -34t-40.5 -112h-297q2 315 438 316q113 0 197 -29t137 -80q66 -66 79 -141.5t13 -177.5v-314q0 -43 4.5 -120.5t12.5 -192.5h-258 q-4 27 -7.5 61.5t-5.5 77.5q-129 -172 -325 -172q-72 0 -132.5 23.5t-103.5 66.5t-67.5 103.5t-24.5 132.5zM248 1204q25 121 73.5 178.5t130.5 57.5q41 0 86 -15l93 -24q25 -8 55 -8q63 0 86 86h110q-51 -244 -208 -244q-16 0 -35 2t-39 8l-88 27q-37 10 -66 10 q-63 0 -88 -78h-110zM379 311q0 -59 40 -97t103 -38q90 0 139.5 66.5t49.5 195.5v25.5t-2 30.5h-33q-147 0 -222 -48.5t-75 -134.5z" />
<glyph unicode="&#xe4;" horiz-adv-x="1128" d="M88 293q0 180 139.5 274.5t415.5 94.5q16 0 33.5 -1.5t34.5 -1.5q0 10 1 21.5t1 21.5q0 94 -34 138.5t-110 44.5q-66 0 -100.5 -34t-40.5 -112h-297q2 315 438 316q113 0 197 -29t137 -80q66 -66 79 -141.5t13 -177.5v-314q0 -43 4.5 -120.5t12.5 -192.5h-258 q-4 27 -7.5 61.5t-5.5 77.5q-129 -172 -325 -172q-72 0 -132.5 23.5t-103.5 66.5t-67.5 103.5t-24.5 132.5zM278 1217v243h226v-243h-226zM379 311q0 -59 40 -97t103 -38q90 0 139.5 66.5t49.5 195.5v25.5t-2 30.5h-33q-147 0 -222 -48.5t-75 -134.5zM626 1217v243h226v-243 h-226z" />
<glyph unicode="&#xe5;" horiz-adv-x="1128" d="M88 293q0 180 139.5 274.5t415.5 94.5q16 0 33.5 -1.5t34.5 -1.5q0 10 1 21.5t1 21.5q0 94 -34 138.5t-110 44.5q-66 0 -100.5 -34t-40.5 -112h-297q2 315 438 316q113 0 197 -29t137 -80q66 -66 79 -141.5t13 -177.5v-314q0 -43 4.5 -120.5t12.5 -192.5h-258 q-4 27 -7.5 61.5t-5.5 77.5q-129 -172 -325 -172q-72 0 -132.5 23.5t-103.5 66.5t-67.5 103.5t-24.5 132.5zM322 1380q0 53 19 100.5t54 82t82 54t101 19.5q53 0 100 -19.5t82 -54t55.5 -81.5t20.5 -101q0 -53 -20.5 -100t-55.5 -82t-82 -55.5t-100 -20.5q-55 0 -101.5 19.5 t-81.5 54.5t-54 82t-19 102zM379 311q0 -59 40 -97t103 -38q90 0 139.5 66.5t49.5 195.5v25.5t-2 30.5h-33q-147 0 -222 -48.5t-75 -134.5zM461 1380q0 -49 33.5 -83.5t83.5 -34.5q49 0 83.5 34.5t34.5 83.5q0 47 -35.5 82t-82.5 35q-49 0 -83 -34t-34 -83z" />
<glyph unicode="&#xe6;" horiz-adv-x="1718" d="M82 272q0 369 559 369q16 0 31.5 -1t32.5 -1q2 16 2 29.5v27.5q0 98 -33 143.5t-111 45.5q-66 0 -100.5 -34t-40.5 -112h-297q2 154 107.5 235t316.5 81q117 0 196.5 -29t128.5 -92q53 55 129 87t183 32q217 0 338 -135.5t121 -391.5q0 -14 -1.5 -26.5t-1.5 -26.5h-663 v-10q0 -287 190 -287q145 0 179 146h266q-16 -164 -130 -254.5t-310 -90.5q-119 0 -209.5 39t-167.5 127q-172 -176 -387 -176q-74 0 -134.5 23.5t-103.5 64.5t-66.5 96.5t-23.5 120.5zM371 293q0 -59 41 -97t104 -38q90 0 139.5 65.5t49.5 194.5v25.5t-3 29.5h-34 q-147 0 -222 -47t-75 -133zM989 641h352q-4 223 -176 223q-76 0 -123 -57t-53 -166z" />
<glyph unicode="&#xe7;" horiz-adv-x="1019" d="M80 528q0 248 128 386.5t353 138.5q180 0 287.5 -99.5t112.5 -275.5h-283q-10 98 -42 141t-97 43q-150 0 -150 -327q0 -178 34 -263.5t122 -85.5q123 0 135 203h281q0 -199 -111 -306.5t-309 -107.5q-104 0 -189.5 38t-146 109t-93 173t-32.5 233zM247 -309 q88 -23 151.5 -33t104.5 -10q102 0 103 73q0 39 -29 54.5t-92 15.5h-27.5t-29.5 -2v211h100v-90h14q238 0 238 -191q0 -201 -266 -200q-47 0 -114 10t-153 33v129z" />
<glyph unicode="&#xe8;" horiz-adv-x="1120" d="M86 504q0 266 129 407.5t365 141.5q219 0 338.5 -137.5t119.5 -397.5v-33.5t-2 -33.5h-663q2 -274 190 -275q145 0 178 146h265q-12 -162 -127 -253.5t-314 -91.5q-227 0 -353 137.5t-126 389.5zM268 1526h258l197 -369h-142zM381 641h352q-4 223 -174 223 q-76 0 -124 -57t-54 -166z" />
<glyph unicode="&#xe9;" horiz-adv-x="1120" d="M86 504q0 266 129 407.5t365 141.5q219 0 338.5 -137.5t119.5 -397.5v-33.5t-2 -33.5h-663q2 -274 190 -275q145 0 178 146h265q-12 -162 -127 -253.5t-314 -91.5q-227 0 -353 137.5t-126 389.5zM381 641h352q-4 223 -174 223q-76 0 -124 -57t-54 -166zM399 1157l197 369 h258l-313 -369h-142z" />
<glyph unicode="&#xea;" horiz-adv-x="1120" d="M86 504q0 266 129 407.5t365 141.5q219 0 338.5 -137.5t119.5 -397.5v-33.5t-2 -33.5h-663q2 -274 190 -275q145 0 178 146h265q-12 -162 -127 -253.5t-314 -91.5q-227 0 -353 137.5t-126 389.5zM246 1157l196 369h238l196 -369h-141l-174 217l-176 -217h-139zM381 641 h352q-4 223 -174 223q-76 0 -124 -57t-54 -166z" />
<glyph unicode="&#xeb;" horiz-adv-x="1120" d="M86 504q0 266 129 407.5t365 141.5q219 0 338.5 -137.5t119.5 -397.5v-33.5t-2 -33.5h-663q2 -274 190 -275q145 0 178 146h265q-12 -162 -127 -253.5t-314 -91.5q-227 0 -353 137.5t-126 389.5zM274 1217v243h226v-243h-226zM381 641h352q-4 223 -174 223 q-76 0 -124 -57t-54 -166zM622 1217v243h226v-243h-226z" />
<glyph unicode="&#xec;" horiz-adv-x="567" d="M-6 1526h258l197 -369h-142zM135 0v1028h299v-1028h-299z" />
<glyph unicode="&#xed;" horiz-adv-x="567" d="M125 1157l197 369h258l-313 -369h-142zM135 0v1028h299v-1028h-299z" />
<glyph unicode="&#xee;" horiz-adv-x="567" d="M-28 1157l196 369h238l196 -369h-141l-174 217l-176 -217h-139zM135 0v1028h299v-1028h-299z" />
<glyph unicode="&#xef;" horiz-adv-x="567" d="M0 1217v243h226v-243h-226zM135 0v1028h299v-1028h-299zM348 1217v243h226v-243h-226z" />
<glyph unicode="&#xf0;" horiz-adv-x="1234" d="M86 455q0 106 36 193t100.5 150.5t151.5 98.5t189 35q121 0 230 -70q-72 127 -220 250l-294 -121l-50 107l246 104q-53 35 -98 62.5t-82 50.5l133 160q70 -35 143.5 -78t153.5 -97l289 121l51 -108l-236 -101q322 -295 322 -714q0 -250 -139.5 -386.5t-395.5 -136.5 q-121 0 -219 35t-166.5 97.5t-106.5 150.5t-38 197zM389 463q0 -289 227 -289t228 289q0 291 -228 291q-227 0 -227 -291z" />
<glyph unicode="&#xf1;" horiz-adv-x="1220" d="M129 1028h285l6 -154q59 94 138 136.5t194 42.5q174 0 254.5 -96.5t80.5 -294.5v-662h-294v621q0 111 -37 163t-131 52q-86 0 -138.5 -54.5t-52.5 -148.5v-633h-295v831q0 47 -3 96.5t-7 100.5zM293 1204q25 121 73.5 178.5t130.5 57.5q41 0 86 -15l93 -24q25 -8 55 -8 q63 0 86 86h110q-51 -244 -208 -244q-16 0 -35 2t-39 8l-88 27q-37 10 -66 10q-63 0 -88 -78h-110z" />
<glyph unicode="&#xf2;" horiz-adv-x="1234" d="M86 514q0 123 38 222.5t107.5 170t168 108.5t216.5 38q119 0 217.5 -38t169 -107.5t108.5 -170t38 -223.5t-38 -223.5t-108.5 -170t-169 -107.5t-217.5 -38t-217 38t-167.5 109t-107.5 170t-38 222zM325 1526h258l197 -369h-142zM389 516q0 -170 58.5 -255t168.5 -85 q111 0 169.5 85t58.5 255t-58.5 255t-169.5 85t-169 -85t-58 -255z" />
<glyph unicode="&#xf3;" horiz-adv-x="1234" d="M86 514q0 123 38 222.5t107.5 170t168 108.5t216.5 38q119 0 217.5 -38t169 -107.5t108.5 -170t38 -223.5t-38 -223.5t-108.5 -170t-169 -107.5t-217.5 -38t-217 38t-167.5 109t-107.5 170t-38 222zM389 516q0 -170 58.5 -255t168.5 -85q111 0 169.5 85t58.5 255 t-58.5 255t-169.5 85t-169 -85t-58 -255zM456 1157l197 369h258l-313 -369h-142z" />
<glyph unicode="&#xf4;" horiz-adv-x="1234" d="M86 514q0 123 38 222.5t107.5 170t168 108.5t216.5 38q119 0 217.5 -38t169 -107.5t108.5 -170t38 -223.5t-38 -223.5t-108.5 -170t-169 -107.5t-217.5 -38t-217 38t-167.5 109t-107.5 170t-38 222zM303 1157l196 369h238l196 -369h-141l-174 217l-176 -217h-139z M389 516q0 -170 58.5 -255t168.5 -85q111 0 169.5 85t58.5 255t-58.5 255t-169.5 85t-169 -85t-58 -255z" />
<glyph unicode="&#xf5;" horiz-adv-x="1234" d="M86 514q0 123 38 222.5t107.5 170t168 108.5t216.5 38q119 0 217.5 -38t169 -107.5t108.5 -170t38 -223.5t-38 -223.5t-108.5 -170t-169 -107.5t-217.5 -38t-217 38t-167.5 109t-107.5 170t-38 222zM301 1204q25 121 73.5 178.5t130.5 57.5q41 0 86 -15l93 -24 q25 -8 55 -8q63 0 86 86h110q-51 -244 -208 -244q-16 0 -35 2t-39 8l-88 27q-37 10 -66 10q-63 0 -88 -78h-110zM389 516q0 -170 58.5 -255t168.5 -85q111 0 169.5 85t58.5 255t-58.5 255t-169.5 85t-169 -85t-58 -255z" />
<glyph unicode="&#xf6;" horiz-adv-x="1234" d="M86 514q0 123 38 222.5t107.5 170t168 108.5t216.5 38q119 0 217.5 -38t169 -107.5t108.5 -170t38 -223.5t-38 -223.5t-108.5 -170t-169 -107.5t-217.5 -38t-217 38t-167.5 109t-107.5 170t-38 222zM331 1217v243h226v-243h-226zM389 516q0 -170 58.5 -255t168.5 -85 q111 0 169.5 85t58.5 255t-58.5 255t-169.5 85t-169 -85t-58 -255zM679 1217v243h226v-243h-226z" />
<glyph unicode="&#xf7;" horiz-adv-x="1705" d="M254 512v199h1198v-199h-1198zM702 217q0 66 45.5 109t106.5 43t106.5 -44t45.5 -108q0 -59 -44 -104t-108 -45q-63 0 -107.5 43t-44.5 106zM702 1004q0 66 45.5 108.5t106.5 42.5t106.5 -44t45.5 -107q0 -61 -43 -106.5t-109 -45.5q-63 0 -107.5 44t-44.5 108z" />
<glyph unicode="&#xf8;" horiz-adv-x="1234" d="M23 4l165 172q-49 57 -75.5 140t-26.5 194q0 125 38 225.5t107.5 171t168 108.5t218.5 38q180 0 326 -99l158 164l78 -82l-152 -159q57 -66 89 -157t32 -208q0 -123 -38 -221t-107.5 -168t-168 -108t-217.5 -38q-211 0 -352 117l-166 -172zM389 535q0 -25 3 -62t7 -84 l379 391q-33 35 -71.5 55.5t-90.5 20.5q-106 0 -166.5 -82t-60.5 -239zM438 276q33 -47 82 -72.5t107 -25.5q106 0 162.5 88t56.5 264q0 41 -3 79t-14 73z" />
<glyph unicode="&#xf9;" horiz-adv-x="1220" d="M135 367v661h297v-618q0 -111 37 -163t131 -52q86 0 137 53t51 147v633h297v-829q0 -47 2.5 -97.5t6.5 -101.5h-283l-8 154q-59 -94 -138 -136.5t-194 -42.5q-174 0 -255 96.5t-81 295.5zM317 1526h258l197 -369h-142z" />
<glyph unicode="&#xfa;" horiz-adv-x="1220" d="M135 367v661h297v-618q0 -111 37 -163t131 -52q86 0 137 53t51 147v633h297v-829q0 -47 2.5 -97.5t6.5 -101.5h-283l-8 154q-59 -94 -138 -136.5t-194 -42.5q-174 0 -255 96.5t-81 295.5zM448 1157l197 369h258l-313 -369h-142z" />
<glyph unicode="&#xfb;" horiz-adv-x="1220" d="M135 367v661h297v-618q0 -111 37 -163t131 -52q86 0 137 53t51 147v633h297v-829q0 -47 2.5 -97.5t6.5 -101.5h-283l-8 154q-59 -94 -138 -136.5t-194 -42.5q-174 0 -255 96.5t-81 295.5zM295 1157l196 369h238l196 -369h-141l-174 217l-176 -217h-139z" />
<glyph unicode="&#xfc;" horiz-adv-x="1220" d="M135 367v661h297v-618q0 -111 37 -163t131 -52q86 0 137 53t51 147v633h297v-829q0 -47 2.5 -97.5t6.5 -101.5h-283l-8 154q-59 -94 -138 -136.5t-194 -42.5q-174 0 -255 96.5t-81 295.5zM323 1217v243h226v-243h-226zM671 1217v243h226v-243h-226z" />
<glyph unicode="&#xfd;" horiz-adv-x="1126" d="M23 1028h329l223 -672l226 672h299l-393 -1028l-119 -389h-303l127 389zM401 1157l197 369h258l-313 -369h-142z" />
<glyph unicode="&#xfe;" horiz-adv-x="1245" d="M135 -389v1864h297v-594q102 168 305 168q90 0 167 -37t133.5 -106.5t88 -169t31.5 -222.5q0 -125 -30.5 -223t-86 -167t-131 -105.5t-168.5 -36.5q-201 0 -309 159v-530h-297zM426 516q0 -160 60.5 -248t158.5 -88t153.5 86t55.5 250t-55.5 250t-153.5 86t-158.5 -88 t-60.5 -248z" />
<glyph unicode="&#xff;" horiz-adv-x="1126" d="M23 1028h329l223 -672l226 672h299l-393 -1028l-119 -389h-303l127 389zM276 1217v243h226v-243h-226zM624 1217v243h226v-243h-226z" />
<glyph unicode="&#x152;" horiz-adv-x="2076" d="M100 735q0 178 49.5 317.5t145.5 235.5t237.5 146.5t323.5 50.5q86 0 173 -5t179 -5h752v-242h-666v-361h619v-235h-619v-393h684v-244h-768q-92 0 -183 -5t-185 -5q-176 0 -313.5 51t-232.5 147.5t-145.5 234.5t-50.5 312zM428 739q0 -518 428 -518q25 0 65 4t97 11 v1011q-53 8 -93 11.5t-69 3.5q-428 0 -428 -523z" />
<glyph unicode="&#x153;" horiz-adv-x="1861" d="M86 514q0 123 38 223.5t105.5 170t163.5 107.5t213 38q111 0 195 -33t166 -113q78 76 161.5 111t190.5 35q219 0 339 -137.5t120 -397.5v-33.5t-2 -33.5h-664q2 -274 191 -275q145 0 178 146h266q-16 -164 -131 -254.5t-311 -90.5q-106 0 -187.5 31t-152.5 107 q-78 -74 -164 -107t-195 -33q-117 0 -213 38t-163.5 107.5t-105.5 170t-38 223.5zM371 516q0 -170 59 -255t170 -85t169 85t58 255t-58 255t-169 85t-170 -85t-59 -255zM1120 641h353q-4 223 -175 223q-76 0 -124 -57t-54 -166z" />
<glyph unicode="&#x178;" horiz-adv-x="1349" d="M20 1475h332l338 -631l305 631h328l-489 -930v-545h-316v545zM389 1663v243h226v-243h-226zM737 1663v243h226v-243h-226z" />
<glyph unicode="&#x2c6;" d="M197 1157l196 369h238l196 -369h-141l-174 217l-176 -217h-139z" />
<glyph unicode="&#x2dc;" d="M195 1204q25 121 73.5 178.5t130.5 57.5q41 0 86 -15l93 -24q25 -8 55 -8q63 0 86 86h110q-51 -244 -208 -244q-16 0 -35 2t-39 8l-88 27q-37 10 -66 10q-63 0 -88 -78h-110z" />
<glyph unicode="&#x2000;" horiz-adv-x="986" />
<glyph unicode="&#x2001;" horiz-adv-x="1972" />
<glyph unicode="&#x2002;" horiz-adv-x="986" />
<glyph unicode="&#x2003;" horiz-adv-x="1972" />
<glyph unicode="&#x2004;" horiz-adv-x="657" />
<glyph unicode="&#x2005;" horiz-adv-x="493" />
<glyph unicode="&#x2006;" horiz-adv-x="328" />
<glyph unicode="&#x2007;" horiz-adv-x="328" />
<glyph unicode="&#x2008;" horiz-adv-x="246" />
<glyph unicode="&#x2009;" horiz-adv-x="394" />
<glyph unicode="&#x200a;" horiz-adv-x="109" />
<glyph unicode="&#x2010;" horiz-adv-x="712" d="M92 391v271h529v-271h-529z" />
<glyph unicode="&#x2011;" horiz-adv-x="712" d="M92 391v271h529v-271h-529z" />
<glyph unicode="&#x2012;" horiz-adv-x="712" d="M92 391v271h529v-271h-529z" />
<glyph unicode="&#x2013;" d="M0 412v227h1024v-227h-1024z" />
<glyph unicode="&#x2014;" horiz-adv-x="2048" d="M0 412v227h2048v-227h-2048z" />
<glyph unicode="&#x2018;" horiz-adv-x="550" d="M57 967l224 508h213l-148 -508h-289z" />
<glyph unicode="&#x2019;" horiz-adv-x="550" d="M57 967l146 508h291l-226 -508h-211z" />
<glyph unicode="&#x201a;" horiz-adv-x="550" d="M57 -231l146 507h291l-226 -507h-211z" />
<glyph unicode="&#x201c;" horiz-adv-x="952" d="M55 967l226 508h213l-148 -508h-291zM459 967l223 508h213l-145 -508h-291z" />
<glyph unicode="&#x201d;" horiz-adv-x="952" d="M57 967l146 508h291l-226 -508h-211zM459 967l145 508h291l-225 -508h-211z" />
<glyph unicode="&#x201e;" horiz-adv-x="952" d="M55 -231l148 507h291l-226 -507h-213zM459 -231l145 507h291l-225 -507h-211z" />
<glyph unicode="&#x2022;" horiz-adv-x="1208" d="M307 762q0 61 23.5 114.5t63.5 93.5t94.5 63.5t115.5 23.5t114.5 -23.5t93.5 -63.5t63.5 -93.5t23.5 -114.5t-23.5 -114.5t-63.5 -94.5t-94 -64.5t-116 -23.5q-61 0 -115.5 23.5t-94.5 63.5t-62.5 94.5t-22.5 115.5z" />
<glyph unicode="&#x2026;" horiz-adv-x="2048" d="M211 0v270h258v-270h-258zM893 0v270h258v-270h-258zM1577 0v270h258v-270h-258z" />
<glyph unicode="&#x202f;" horiz-adv-x="394" />
<glyph unicode="&#x2039;" horiz-adv-x="710" d="M109 522l223 387h270l-194 -387l192 -403h-268z" />
<glyph unicode="&#x203a;" horiz-adv-x="710" d="M109 909h270l223 -387l-223 -403h-268l192 403z" />
<glyph unicode="&#x205f;" horiz-adv-x="493" />
<glyph unicode="&#x2122;" horiz-adv-x="1705" d="M207 1350v112h485v-112h-168v-435h-149v435h-168zM803 915v547h196l127 -332l123 332h197v-547h-135v410l-154 -410h-61l-158 410v-410h-135z" />
<glyph unicode="&#xe000;" d="M0 0v1024h1024v-1024h-1024z" />
</font>
</defs>
</svg>
